<?xml version="1.0" encoding="UTF-8"?>
<!DOCTYPE svg PUBLIC "-//W3C//DTD SVG 1.1//EN" "http://www.w3.org/Graphics/SVG/1.1/DTD/svg11.dtd">
<!-- Creator: CorelDRAW 2018 (64-Bit) -->
<svg xmlns="http://www.w3.org/2000/svg" xml:space="preserve" width="266.804mm" height="300mm" version="1.1" style="shape-rendering:geometricPrecision; text-rendering:geometricPrecision; image-rendering:optimizeQuality; fill-rule:evenodd; clip-rule:evenodd"
viewBox="0 0 26680.38 30000"
 xmlns:xlink="http://www.w3.org/1999/xlink">
 <defs>
  <style type="text/css">
   <![CDATA[
    .fil3 {fill:black}
    .fil1 {fill:#999999}
    .fil0 {fill:#CC9933}
    .fil2 {fill:white}
   ]]>
  </style>
 </defs>
 <g id="Layer_x0020_1">
  <metadata id="CorelCorpID_0Corel-Layer"/>
  <g id="_2233890174800">
   <path id="path779" class="fil0" d="M15729.21 30000l-210.61 -21.07 -200.06 -31.59 -200.09 -63.18 -189.54 -84.25 -178.99 -105.29 -179.02 -126.36 -168.47 -157.95 -157.95 -179.02 -157.95 -200.06 -136.91 -221.13 -115.81 -221.13 -94.77 -242.2 -73.73 -252.72 -42.11 -252.72 -31.59 -273.76 -10.52 -284.31 10.52 -410.67 63.18 -442.26 105.29 -463.33 136.91 -505.44 189.54 -526.51c381.09,-979.99 759.98,-1996.64 1266.24,-2917.08l126.36 -221.13 147.4 -221.13 157.95 -221.13 168.5 -231.65 178.99 -231.65 200.09 -242.2 200.06 -242.2 221.13 -242.17 221.13 -252.72 242.2 -263.27 -105.32 -84.22 -136.88 -63.18 -157.95 -31.59 -189.54 -10.55 -210.61 10.55 -231.65 31.59 -273.79 63.18 -305.35 73.7 -336.97 105.29 -368.56 136.91 -400.12 147.4 -431.74 179.02 0 -10.52 -294.86 126.36 -284.31 126.36 -273.76 105.29 -252.72 115.84 -242.2 94.77 -231.65 94.77 -37.71 16.17 -4.1 -54.75 -31.49 -440.94 -31.52 -462.08 -31.52 -483.43 -6.72 -105.27 1722.55 -670.48 284.31 -115.84 284.31 -115.81 263.24 -105.32 252.72 -94.77 242.2 -84.22 231.65 -84.25 210.61 -73.7 200.06 -63.18 179.02 -63.18 179.02 -42.14 157.95 -42.11 147.4 -42.11 126.36 -21.07 126.36 -21.07 105.32 -10.52 94.77 -10.52 252.72 21.04 221.13 31.59 200.06 63.18 147.43 94.77 126.36 115.84 84.22 136.88 52.66 168.5 21.07 189.54 -10.55 157.95 -21.04 157.95 -31.59 157.95 -31.59 147.4 -52.66 157.95 -73.7 157.95 -73.73 147.43 -84.22 157.95 -631.8 831.86 -52.66 63.18 -73.7 94.77 -105.32 126.36 -115.81 147.43 -157.95 189.54 -168.5 200.06 -200.06 242.2 -221.13 263.24 -168.47 210.61 -157.95 189.54 -147.43 189.54 -126.36 168.47 -115.84 168.5 -94.77 147.4 -94.77 136.91 -73.7 136.88c-251.03,477.04 -421.24,993 -613.37,1495.53l-126.36 368.56 -115.84 358.01 -105.29 326.42 -73.73 315.9 -63.18 284.31 -42.11 273.79 -31.59 252.72 -10.52 231.65 21.04 315.9 63.18 284.31 94.77 252.72 147.43 221.13 84.25 105.32 94.77 84.22 105.29 73.73 115.84 63.18 115.81 52.63 126.36 31.59 136.91 21.07 147.4 10.52 242.2 -21.04 242.2 -52.66 263.24 -94.77 263.24 -126.36 273.79 -157.95 284.31 -200.06 294.83 -231.68 305.38 -263.24 31.59 -31.59 31.59 -42.11 52.66 -52.66 73.7 -73.7 84.25 -94.77 105.29 -105.32 115.84 -126.36 126.36 -136.88 147.4 -157.95 157.95 -179.02 179.02 -189.54 189.54 -200.06 200.06 -221.13 221.13 -242.2 231.68 -252.72 252.72 -273.76 379.08 -400.15 368.53 -368.56 368.56 -347.49 358.01 -315.9 347.49 -294.83 358.04 -263.24 336.94 -242.2 347.49 -221.13 336.97 -189.54 326.42 -168.47 326.45 -147.43 315.9 -105.29 315.9 -94.77 315.9 -63.18 305.35 -42.14 294.86 -10.52 168.47 10.52 157.95 21.07 157.95 31.59 157.95 42.11 136.88 63.18 136.91 63.18 136.88 84.25 126.36 105.29 105.29 105.32 105.32 105.29 84.22 115.84 63.18 115.81 52.66 126.36 42.11 126.36 21.07 136.91 10.52 136.88 -10.52 336.97 -52.66 305.35 -63.18 294.86 -105.29 273.76 -42.11 84.25 -31.59 52.66 -21.07 42.11 -21.07 10.52 -31.59 -10.52 -31.59 -42.11 -42.11 -52.66 -42.11 -84.25 -136.91 -210.58 -147.4 -179.02 -157.95 -147.43 -179.02 -126.36 -200.06 -94.77 -210.61 -73.7 -221.13 -42.11 -252.72 -10.55 -231.65 10.55 -231.68 21.04 -231.65 52.66 -242.2 63.18 -252.72 84.25 -252.72 105.29 -252.72 115.84 -263.24 147.4 -263.24 157.95 -263.27 168.5 -273.76 200.06 -273.79 210.61 -284.31 231.65 -284.31 252.72 -284.31 273.79 -294.83 284.31 -2621.97 2864.15 -284.31 273.79 -273.79 242.2 -273.79 200.06 -273.76 168.47 -263.27 126.36 -263.24 94.77 -263.24 52.66 -252.71 21.06zm-10337.84 -11298.98l-52.66 189.54 -42.11 179.02 -21.07 157.95 0 315.9 31.59 147.43 42.14 136.88 52.63 126.36 73.73 115.84 94.77 105.29 105.29 94.77 126.36 84.25 136.88 73.7 157.95 63.18 179.02 63.18 189.54 42.11 210.61 31.59 221.13 31.59 242.17 10.55 252.72 10.52 336.97 -21.07 358.01 -31.59 379.08 -52.63 400.15 -84.25 431.74 -94.77 452.78 -126.36 484.37 -147.43 422.34 -140.76 14.15 187.55 31.66 548.72 42.24 517.16 20.07 314.26 -456.74 163.12 -547.58 178.99 -515.96 147.43 -484.37 126.36 -442.26 105.29 -410.67 63.18 -379.08 42.14 -336.97 21.04 -294.83 -10.52 -284.31 -31.59 -263.27 -42.11 -242.17 -63.18 -221.13 -84.25 -200.09 -94.77 -178.99 -115.84 -168.5 -136.88 -147.4 -157.95 -115.84 -168.47 -115.84 -189.54 -84.22 -210.61 -63.18 -221.13 -52.66 -252.72 -31.59 -252.72 0 -284.31 10.52 -326.42 31.59 -326.45 63.18 -347.49 84.25 -347.49 -305.37 0 -200.06 -10.52 -210.61 -21.07 -231.65 -31.59 -252.72 -42.11 -263.24 -52.66 -284.31 -73.7 -315.9 -84.25 -315.9 -94.77 -326.45 -94.77 -315.9 -105.29 -294.83 -105.29 -273.79 -105.32 -252.72 -105.29 -242.17 -115.84 -231.68 -105.29 -210.58 -115.84 -115.84 -63.18 -105.29 -63.18 -73.73 -52.63 -52.63 -52.66 -31.59 -42.11 -10.55 -31.59 10.55 -31.59 42.11 -21.07 42.11 -10.52 73.73 -10.55 526.48 0 189.54 10.55 210.61 10.52 326.42 10.52 305.38 21.07 294.83 0 263.27 10.52 263.24 10.55 452.78 0 200.09 10.52 178.99 -10.52 210.61 0 242.2 -21.07 273.76 -10.52 294.86 -31.59 336.94 -31.59 368.56 -31.59 389.6 -42.14 358.04 -410.67 336.94 -400.12 305.38 -379.08 294.83 -368.56 73.73 -136.88 52.63 -157.95 42.14 -200.09 21.04 -221.13 0 -1874.33 -10.52 -52.66 0 -84.22 -10.52 -126.36 0 -147.43 -21.07 -189.54 -10.52 -221.13 -10.55 -252.72 -21.04 -284.31 -21.07 -326.42 -31.59 -347.49 -21.07 -389.63 -31.59 -421.19 -31.59 -463.33 -31.59 -484.37 -42.11 -526.51 -42.11 -547.55 -31.59 -547.55 -42.14 -515.99 -31.59 -484.37 -31.59 -452.78 -31.59 -421.22 -21.04 -389.6 -21.07 -358.01 -21.07 -326.45 -21.04 -294.83 -10.55 -263.24 -10.52 -231.68 -10.52 -200.06 0 -168.47 -10.55 -136.91 0 -105.29 10.55 -84.25 -10.55 -358.01 -52.63 -358.01 -84.25 -326.45 -115.84 -305.35 10.55 -84.25 21.04 -115.84 42.14 -136.88 42.11 -168.47 73.7 -189.54 84.25 -221.13 94.77 -242.2 115.84 -263.24 21.04 -63.18 31.59 -42.14 21.07 -31.59 52.66 -0.01 31.59 31.59 31.59 52.66 31.59 63.18 31.59 94.77 52.63 115.84 52.66 157.95 73.7 178.99 84.25 221.13 94.77 252.72 105.29 273.79 115.84 315.9 126.36 326.42 115.84 294.86 94.77 263.24 84.22 221.13 73.73 200.06 52.63 157.95 42.14 126.36 31.59 94.77 31.59 115.84 21.04 94.77 10.55 84.25 10.52 63.18 -21.07 84.22 -31.59 31.59 -52.63 0 -84.25 -31.59 -94.77 -84.22 -126.36 -115.84 -147.43 -147.43 -168.47 -200.06 -31.59 -21.07 -31.59 10.55 -10.52 42.11 -10.55 84.25 0 147.4 10.55 94.77 10.52 136.91 10.52 147.4 10.55 189.54 21.04 210.61 21.07 231.65 21.07 263.27 21.04 294.83 21.07 315.9 31.59 347.49 31.59 368.56 31.59 400.12 31.59 421.22 31.59 431.71 31.59 421.22 31.59 379.08 31.59 368.53 21.07 336.97 21.04 305.38 21.07 294.83 21.07 263.24 21.04 242.2 10.55 210.61 10.52 189.54 10.52 168.47 10.55 136.88 0 210.61 10.52 73.7 -10.52 126.36 0 136.91 -10.55 157.95 -10.52 168.47 -10.52 168.47 -21.07 200.09 -10.52 200.06 -31.59 210.61 -21.07 231.65 -31.59 242.2 -31.59 252.72 -31.59 263.24 -31.59 273.79 -42.11 294.83 -42.14 305.38 -52.63 315.9 431.71 -421.22 410.67 -379.08 400.15 -358.01 400.15 -336.97 379.08 -305.35 379.08 -284.31 358.01 -252.72 358.01 -221.13 347.49 -200.09 336.97 -178.99 326.42 -147.43 315.9 -115.84 305.38 -94.77 294.83 -63.18 284.31 -42.11 284.31 -10.52 252.72 10.52 242.2 42.11 231.65 73.73 231.68 94.77 221.13 126.36 210.58 157.95 210.61 189.54 200.06 210.58 136.91 179.02 115.81 168.47 105.32 157.95 84.22 147.43 73.73 147.43 42.11 136.88 31.59 126.36 10.52 115.84 0 0 -21.04 347.49 -31.59 326.42 -63.18 315.9 -94.77 305.38 -105.32 294.83 -147.4 284.31 -157.95 273.79 -189.54 263.24 -105.32 126.36 -126.36 126.36 -147.4 126.36 -157.95 126.36 -179.02 115.84 -189.54 126.36 -210.61 115.81 -221.13 126.36 -242.17 115.84 -263.27 115.84 -273.76 115.81 -284.31 115.84 -315.9 115.84 -326.45 115.81 -336.94 115.84 -358.04 105.29 -705.5 210.61 -705.5 179.02 -694.98 157.95 -694.98 136.88 -684.46 115.84 -694.98 94.77 -684.46 73.7 -673.91 42.12zm9192.69 -4296.24l-126.36 -178.99 -126.36 -168.5 -126.36 -157.95 -126.36 -147.4 -126.36 -126.36 -136.88 -126.36 -136.91 -105.32 -136.88 -94.77 -136.88 -94.77 -136.91 -73.7 -136.88 -63.18 -147.43 -52.66 -147.4 -42.11 -147.43 -21.07 -147.43 -21.04 -147.4 -0.01 -315.9 10.52 -326.45 42.11 -336.94 84.25 -336.97 105.29 -358.01 147.43 -358.04 168.47 -368.53 200.09 -389.63 242.17 -389.6 263.27 -400.15 294.83 -410.67 326.42 -421.19 358.04 -431.74 389.6 -442.26 421.19 -442.26 452.81 -463.3 484.37 347.49 -21.07 358.01 -42.11 379.08 -42.11 400.15 -63.18 421.19 -63.18 431.74 -73.73 463.3 -94.77 473.85 -94.77 737.12 -168.47 705.5 -179.02 673.91 -200.06 642.35 -210.61 610.73 -221.13 568.62 -231.65 537.03 -242.2 505.44 -263.24 84.25 -42.11 52.63 -31.59 42.14 -31.59 10.52 -31.59 10.52 -21.07 -10.52 -42.11 -31.59 -42.14 -31.59 -63.17z"/>
   <path id="path783" class="fil1" d="M9874.51 2906.28l-21.04 -400.15 -52.66 -358.01 -73.7 -315.9 -115.84 -273.79 0 -84.22 21.07 -115.84 42.11 -136.88 52.66 -157.95 73.7 -200.09 84.25 -210.58 94.77 -252.72 115.81 -263.27 31.59 -63.18 21.07 -42.11 31.59 -21.07 21.07 -10.52 21.04 10.52 31.59 21.07 31.59 42.11 31.59 63.18 42.14 94.77 52.63 115.84 63.18 157.95 73.73 179.02 84.22 221.13 94.77 252.72 105.32 273.76 115.81 315.9 126.36 326.45 115.84 294.83 94.77 252.72 84.25 231.65 63.18 200.09 52.63 157.95 42.14 136.88 31.59 94.77 31.59 115.84 21.04 94.77 10.55 84.22 10.52 63.18 -10.52 73.73 -42.14 42.11 -52.63 0 -84.25 -42.11 -94.77 -73.73 -126.36 -115.81 -147.43 -157.95 -178.99 -189.54 -31.59 -31.59 -31.59 10.52 -10.55 42.11 -10.52 94.77 0 10.55 10.52 42.11 0 126.36 10.55 105.29 10.52 115.84 10.52 136.88 10.55 168.5 10.52 178.99 10.52 200.09 21.07 221.13 21.07 242.17 10.52 263.27 21.07 294.83 21.04 305.38 31.59 326.42 21.07 347.49 21.07 368.56 31.59 389.6 31.59 410.67 31.59 421.19 31.59 452.81 31.59 473.85 31.59 494.89 42.11 515.99 42.11 537.03 31.59 547.55 10.47 143.82 -271.48 122.6 -353.58 187.82 -290.95 167.53 0 -0.5 -42.14 -600.21 -42.11 -579.17 -42.11 -568.62 -31.59 -537.03 -42.14 -515.96 -31.59 -494.92 -31.59 -473.85 -31.59 -452.78 -31.59 -431.74 -21.04 -410.67 -31.59 -400.12 -21.07 -368.56 -21.07 -347.49 -31.59 -326.42 -10.52 -305.38 -21.07 -284.31 -21.04 -273.79 -10.55 -242.17 -10.52 -221.13 -21.07 -200.09 -10.52 -178.99 0 -168.5 -10.52 -136.88 -10.55 -115.84 0 -231.65 -0.02 0.01zm1653.93 10527.56l9.83 149.87 52.66 663.39 42.11 652.87 36.14 551.11 -189.84 62.23 -661.38 196.33 -84.75 21.49 -47.88 -641.63 -52.66 -705.53 -35.84 -582.67 277.3 -130.49 333.76 -137.45 310.33 -96.96 10.22 -2.56zm487.73 6824.27l-88.3 -1283.03 -42.11 -526.51 -42.11 -547.55 -5.72 -101.06 -88.25 31.29 -345.13 118.65 -365.2 107.41 -143.82 42.93 21.47 316.75 42.14 600.21 113.48 1610.1 107.66 1569.97 31.59 452.78 31.59 442.26 31.59 410.67 21.04 389.6 21.07 379.08 12.36 135.94 216.06 -88.03 303.59 -136.09 327.47 -137.35 91.51 -40.37 -3.28 -39.45 -21.07 -263.27 -10.52 -284.31 -21.07 -305.35 -21.04 -326.45 -31.59 -347.49 -21.07 -368.53 -21.07 -379.08 -101.27 -1433.72zm-591.13 5632.2l7.94 181.98 21.04 231.68 10.55 210.58 10.52 179.02 10.52 168.47 0 147.43 10.55 126.36 0 684.46 -10.55 421.19 -31.59 389.6 -31.59 347.49 -10.52 126.36 -10.52 105.32 -10.55 94.77 0 84.22 -10.52 73.73 10.52 73.7 0 52.66 10.55 42.11 10.52 21.07 10.52 21.04 10.55 10.55 21.04 0 21.07 -10.55 21.07 -21.04 31.59 -42.14 21.04 -42.11 0 0 42.14 -84.25 52.63 -94.77 52.66 -126.36 52.66 -136.88 147.4 -400.15 115.84 -400.12 105.29 -421.22 84.25 -431.71 73.7 -442.26 42.14 -463.33 31.59 -473.85 8.98 -413.13 -251.65 60.39 -256.75 53.5 -236.88 51.46 -187.75 44.73z"/>
   <path class="fil2" d="M17064.48 24182.89l-195.02 102.66 -181.64 96.16 -180.56 90.26 -161.62 64.65 -135.23 62.42 -142.9 59.55 -109.71 32.91 -104.22 39.09 -104.69 13.08 -68.15 13.65 -15.01 0.01 -17.74 4.42 -67.59 13.51 -78.26 9.8 -66.77 16.68 -115.78 31.58 -133.16 33.29 -582.38 124.78 160.73 -433.53c157.82,-425.68 310.56,-853.84 522.3,-1256.63l70.59 -131.12 91.91 -132.79 94.87 -147.58 113.22 -164.69 57.55 -76.68 358.8 -165.06 501.72 -240.42 484.59 -242.27 447.26 -218.42 416.85 -229.29 598.21 -325.32 564.92 -313.84 521.49 -312.89 482.87 -293.91 446.45 -280.34 405.68 -280.85 373.22 -259.2 332.4 -259.67 227.44 -175.77 190.84 -160.67 160.54 -150.52 125.85 -125.85 87.51 -104.99 52.22 -82.08 14.22 -35.55 -35.01 -56.01 -97.21 -114.89 -74.57 -74.57 -85.93 -50.12 -70.81 -31.49 -111.89 -37.28 -121.81 -37.47 -136.27 -27.25 -150.58 -18.84 -179.42 -9.96 -204.26 -10.23 -230.79 -0.01 -248.2 -10.78 -244.8 -11.12 -230.99 -34.65 -210.27 -44.29 -197.74 -46.51 -189.16 -70.94 -169.99 -72.85 -167.3 -102.97 -138.83 -113.58 -112.69 -112.69 -120.72 -147.53 -77.63 -155.25 -75.82 -164.31 -38.32 -166.04 -37.26 -186.28 0 -198.71 11.18 -279.05 34.33 -274.66 57.25 -263.42 80.19 -263.4 103.76 -253.64 126.9 -242.3 150.23 -231.1 182.5 -228.15 167.57 -178.73 173.61 -173.61 188.55 -141.42 176.98 -117.98 194.56 -97.28 201.63 -75.61 205.54 -38.54 204.08 -12.74 264.31 25.14 261.28 74.66 249.17 112.14 242.93 170.05 236.54 212.88 206.21 252.02 212.82 291.26 188.6 332.79 151.3 291.84 143.73 298.46 112.38 303.46 87.56 295.48 76.69 284.91 56.35 281.69 33.89 293.67 11.32 283.35 -21.79 500.94 -43.51 478.73 -77.18 463.15 -111.19 422.45 -145.26 402.28 -179.22 369.66 -204.74 341.24 -245.63 301.43 -145.34 167.71 -167.25 167.25 -173.92 163.06 -195.08 173.4 -194.61 162.17 -214.93 171.93 -222.16 169.27 -236.68 182.88 -249.65 173.66 -265.14 180.28 -273.82 179.03 -288.78 192.52 -300.57 182.5 -317.46 190.48 -655.97 380.88 -297.5 169.97 -283.56 157.53 -262.39 146.93 -243.84 137.83 -239.5 130.62 -222.82 106.1zm-9463.63 117.95l204.14 124.26 234.86 153.57 515.17 355.27 224.89 161.93 184.97 140.92 168.16 121.47 120.3 111.05 82.06 -37.87 154.83 -72.24 193.14 -96.57 212.13 -90.91 57.69 -34.63 103.35 -38.75 92.91 -37.16 126.36 -63.18 160.76 -64.3 176.94 -83.27 207.3 -87.29 228.61 -93.51 263.4 -115.88 283.49 -115.51 304.2 -136.35 327.11 -137.2 357.59 -157.76 391.83 -169.42 410.01 -168.2 431.35 -189.38 844.19 -349.34 -227.51 561.8c-160.77,396.99 -313.12,797.32 -468.99,1196.25l-0.52 1.34 -101.57 282.19 -348.68 93.86 -287.19 63.81 -313.94 73.24 -290.7 72.69 -274.93 74.01 -270.37 64.89 -254.34 52.99 -239.71 52.09 -215.78 51.39 -201.95 53.15 -191.26 42.47 -183.15 43.09 -160.44 32.09 -152.98 32.78 -129.94 20 -121.04 33 -100.78 11.19 -92.03 20.46 -166.5 22.2 -144.48 20.62 -132.78 22.14 -122.69 11.15 -20.65 2.29 -22.17 84.24 -86.39 230.36 -111.01 249.79 -136.51 273.02 -170.92 314.87 -197.25 340.68 -229.85 371.31 -32.23 53.74 -56.06 74.75 -69.87 52.37 -60.57 40.4 -97.92 32.61 -107.62 -0.1 -108.15 -27 -68.35 -45.59 -548.61 -407.02 -540.82 -383.82 -558.25 -375.07 -584.07 -374.18 -100.17 -100.17 -33.93 -169.25 24.01 -119.81 39.26 -91.62 923.86 -1892.15 55.2 -88.32 79.26 -110.94 130.61 -78.38 142.16 -23.72 126.45 21.1 113.99 50.65 121.56 60.79 152.09 95.04 165.43 104.49zm13636.57 -8482.57l-117.23 -117.23 -133.24 -104.69 -102.56 -76.92 -90.77 -41.89 -83.2 -20.81 -95.31 -7.93 -150.4 0 -118.88 16.99 -107.32 24.77 -48.11 19.24 -26.96 23.1 -21.23 24.77 -4.71 12.54 -4.19 37.81 3.34 36.85 13.48 24.25 26.13 29.86 58.65 31.99 115.3 41.18 148.87 35.02 186.64 18.68 233.02 9.7 177.96 -9.88 140.72 -7.4z"/>
   <path id="path785" class="fil3" d="M23289.75 17216.56l-21.07 484.37 -42.11 463.33 -73.7 442.26 -105.32 400.15 -136.88 379.08 -168.47 347.49 -189.54 315.9 -231.68 284.31 -136.88 157.95 -157.95 157.95 -168.47 157.95 -189.54 168.47 -189.54 157.95 -210.61 168.47 -221.13 168.5 -231.65 178.99 -242.2 168.5 -263.24 178.99 -273.79 179.02 -284.31 189.54 -294.83 179.02 -315.9 189.54 -326.45 189.54 -326.42 189.54 -294.83 168.47 -284.31 157.95 -263.27 147.43 -242.17 136.88 -231.68 126.36 -221.13 105.29 -200.06 105.32 -179.02 94.77 -168.47 84.22 -157.95 63.18 -136.88 63.18 -126.36 52.66 -105.32 31.59 -84.22 31.59 -84.25 10.52 -52.66 10.55 -21.05 0.01 -42.14 10.52 -52.63 10.52 -84.25 10.55 -84.25 21.04 -115.81 31.59 -126.36 31.59 -126.06 27.01c153.87,-415.02 303.44,-835.77 508.97,-1226.74l62.68 -116.41 86.31 -124.69 95.09 -147.93 108 -157.1 15.79 -21.04 302.2 -139.02 505.44 -242.2 484.37 -242.17 452.81 -221.13 421.19 -231.68 600.21 -326.42 568.62 -315.9 526.51 -315.9 484.37 -294.83 452.78 -284.31 410.67 -284.31 379.08 -263.27 336.97 -263.24 231.65 -179.02 200.09 -168.47 168.47 -157.95 136.88 -136.88 105.32 -126.36 73.7 -115.84 42.11 -105.29 21.07 -84.25 -105.29 -168.47 -115.84 -136.91 -105.29 -105.29 -126.36 -73.7 -94.77 -42.14 -126.36 -42.11 -136.91 -42.11 -157.95 -31.59 -168.47 -21.07 -189.54 -10.52 -210.61 -10.55 -231.63 -0.01 -242.2 -10.52 -231.65 -10.52 -210.61 -31.59 -200.06 -42.14 -179.02 -42.11 -168.47 -63.18 -147.43 -63.18 -136.88 -84.25 -115.84 -94.77 -94.77 -94.77 -94.77 -115.81 -63.18 -126.36 -63.18 -136.91 -31.59 -136.88 -31.59 -157.95 0 -168.47 10.55 -263.27 31.59 -252.72 52.63 -242.17 73.73 -242.2 94.77 -231.65 115.81 -221.13 136.91 -210.61 168.47 -210.61 157.95 -168.47 157.95 -157.95 168.47 -126.36 157.95 -105.29 168.5 -84.25 168.47 -63.18 168.47 -31.59 168.5 -10.52 221.13 21.04 221.13 63.18 210.58 94.77 210.61 147.43 210.61 189.54 189.54 231.65 200.06 273.79 179.02 315.9 147.4 284.31 136.91 284.31 105.29 284.31 84.25 284.31 73.7 273.79 52.66 263.24 31.59 273.79 10.52 263.24zm-17468.51 9227.53l-26.4 -26.4 -8.82 -43.99 8.82 -44.01 26.4 -61.6 915.28 -1874.59 44.01 -70.41 44.01 -61.6 43.99 -26.4 52.8 -8.81 52.8 8.81 79.21 35.2 105.61 52.81 140.83 88 167.21 105.61 202.43 123.22 228.81 149.62 255.23 176 255.23 176.02 220.02 158.42 184.82 140.81 158.42 114.43 114.4 105.61 88.02 79.21 31.83 44.57 99.69 -59.82 136.91 -63.18 157.95 -73.7 189.54 -94.77 221.13 -94.77 52.63 -31.59 84.25 -31.59 105.29 -42.11 126.36 -63.18 157.95 -63.18 179.02 -84.25 200.06 -84.25 231.68 -94.77 263.24 -115.81 284.31 -115.84 305.38 -136.88 326.42 -136.91 358.01 -157.95 389.63 -168.47 410.67 -168.47 431.71 -189.54 281.62 -116.54c-161.26,398.21 -314.83,799.75 -470.14,1199.15l-1.77 4.53 -57.82 160.64 -215.19 57.93 -284.31 63.18 -315.9 73.7 -294.86 73.73 -273.76 73.7 -263.27 63.18 -252.72 52.66 -242.17 52.63 -221.13 52.66 -200.09 52.66 -189.54 42.11 -178.99 42.11 -157.95 31.59 -147.43 31.59 -136.88 21.07 -115.84 31.59 -94.77 10.52 -94.77 21.07 -157.95 21.07 -147.43 21.04 -126.36 21.07 -115.81 10.52 -94.77 10.55 -84.25 10.52 -31.99 0 -4.61 73.86 -44.01 167.21 -79.21 211.22 -105.61 237.62 -132.01 264.03 -167.21 308.04 -193.63 334.42 -228.81 369.64 -26.4 44.01 -26.4 35.2 -35.22 26.4 -26.4 17.61 -26.4 8.79 -35.21 -0.03 -35.2 -8.79 -26.4 -17.61 -545.66 -404.83 -545.66 -387.25 -563.25 -378.43 -563.25 -360.84zm15899.53 -10449.02l-147.4 -189.54 -147.43 -157.95 -136.88 -136.88 -147.43 -115.84 -126.36 -94.77 -136.88 -63.18 -126.36 -31.59 -126.36 -10.52 -179.02 0 -147.43 21.07 -136.88 31.59 -105.29 42.11 -73.73 63.18 -63.18 73.7 -31.59 84.25 -10.52 94.77 10.52 115.84 52.66 94.77 73.7 84.22 115.84 63.18 147.43 52.66 178.99 42.11 210.61 21.07 252.72 10.52 189.54 -10.52 200.06 -10.52 200.09 -31.59 210.58 -42.14z"/>
  </g>
 </g>
</svg>
